<?xml version="1.0" encoding="utf-8"?>
<!-- Generator: Adobe Illustrator 16.0.0, SVG Export Plug-In . SVG Version: 6.00 Build 0)  -->
<!DOCTYPE svg PUBLIC "-//W3C//DTD SVG 1.1//EN" "http://www.w3.org/Graphics/SVG/1.1/DTD/svg11.dtd">
<svg version="1.1" id="Capa_1" xmlns="http://www.w3.org/2000/svg" xmlns:xlink="http://www.w3.org/1999/xlink" x="0px" y="0px"
	 width="378.5px" height="362.5px" viewBox="133.5 0 378.5 362.5" enable-background="new 133.5 0 378.5 362.5"
	 xml:space="preserve">
<path fill="#FFFFFF" d="M511.782,30.911L512,325.522c0.012,17.062-19.916,30.959-44.421,30.978l-284.564,0.211
	c-24.505,0.018-44.454-13.85-44.467-30.912l-0.217-294.611c-0.013-17.063,19.913-30.959,44.42-30.978L467.317,0
	C491.82-0.02,511.77,13.848,511.782,30.911z M149.298,325.791c0.01,12.937,15.133,23.451,33.711,23.438l284.565-0.211
	c18.58-0.015,33.687-10.55,33.678-23.487l-0.218-294.61c-0.01-12.938-15.132-23.451-33.713-23.438l-284.565,0.21
	c-18.582,0.014-33.689,10.55-33.679,23.487l0.218,294.611H149.298z M464.817,70.678c0.003,2.966-2.401,5.375-5.368,5.377
	l-145.829,0.108c-2.342,8.331-10.005,14.457-19.075,14.463c-9.067,0.006-16.739-6.108-19.095-14.435l-84.719,0.062
	c-2.966,0.002-5.375-2.403-5.377-5.369c-0.002-2.966,2.403-5.376,5.369-5.378l84.719-0.062c2.343-8.333,10.006-14.458,19.073-14.465
	c9.07-0.006,16.739,6.108,19.098,14.438l145.827-0.108C462.406,65.306,464.815,67.712,464.817,70.678z M285.453,70.811
	c0.004,5.003,4.08,9.072,9.083,9.068c5.005-0.003,9.075-4.08,9.071-9.082c-0.004-5.006-4.079-9.075-9.085-9.071
	C289.521,61.729,285.449,65.805,285.453,70.811z M464.872,144.806c0.002,2.967-2.402,5.376-5.369,5.378l-38.605,0.028
	c-2.342,8.333-10.005,14.459-19.075,14.466c-9.066,0.006-16.739-6.108-19.095-14.438l-191.942,0.142
	c-2.966,0.002-5.375-2.403-5.377-5.37c-0.002-2.966,2.403-5.375,5.37-5.377l191.942-0.142c2.344-8.333,10.007-14.458,19.073-14.465
	c9.07-0.007,16.74,6.107,19.097,14.437l38.605-0.028C462.462,139.434,464.87,141.84,464.872,144.806z M392.734,144.859
	c0.003,5.006,4.079,9.077,9.081,9.073c5.006-0.004,9.075-4.081,9.071-9.086c-0.004-5.004-4.079-9.075-9.084-9.071
	S392.73,139.854,392.734,144.859z M464.928,218.937c0.001,2.967-2.402,5.376-5.369,5.378l-174.729,0.129
	c-2.343,8.33-10.007,14.457-19.076,14.464c-9.067,0.007-16.741-6.109-19.094-14.436l-55.819,0.041
	c-2.966,0.003-5.375-2.403-5.377-5.37c-0.002-2.966,2.403-5.374,5.369-5.377l55.818-0.041c2.343-8.332,10.006-14.458,19.073-14.465
	c9.069-0.008,16.739,6.107,19.097,14.437l174.73-0.129C462.518,213.564,464.925,215.968,464.928,218.937z M256.663,219.09
	c0.003,5.004,4.079,9.073,9.081,9.069c5.006-0.003,9.076-4.079,9.073-9.082c-0.004-5.005-4.081-9.075-9.086-9.071
	C260.729,210.01,256.659,214.086,256.663,219.09z M464.982,293.065c0.003,2.966-2.402,5.376-5.369,5.377l-46.398,0.035
	c-2.341,8.331-10.005,14.456-19.073,14.463c-9.07,0.008-16.738-6.107-19.097-14.435l-184.149,0.136
	c-2.966,0.003-5.375-2.403-5.377-5.369s2.403-5.374,5.37-5.377l184.149-0.136c2.342-8.331,10.005-14.46,19.075-14.466
	c9.069-0.008,16.741,6.11,19.095,14.438l46.398-0.035C462.572,287.695,464.98,290.097,464.982,293.065z M385.048,293.126
	c0.004,5.005,4.079,9.071,9.085,9.067c5.005-0.004,9.073-4.078,9.07-9.081c-0.004-5.005-4.082-9.075-9.084-9.071
	C389.114,284.045,385.044,288.117,385.048,293.126z"/>
</svg>
