<?xml version="1.0" encoding="utf-8"?>
<!-- Generator: Adobe Illustrator 18.0.0, SVG Export Plug-In . SVG Version: 6.00 Build 0)  -->
<!DOCTYPE svg PUBLIC "-//W3C//DTD SVG 1.1//EN" "http://www.w3.org/Graphics/SVG/1.1/DTD/svg11.dtd">
<svg version="1.1" id="Layer_1" xmlns="http://www.w3.org/2000/svg" xmlns:xlink="http://www.w3.org/1999/xlink" x="0px" y="0px"
	 viewBox="0 0 500 500" enable-background="new 0 0 500 500" xml:space="preserve">
<path id="path-1" fill="#FFFFFF" d="M250,500C111.9,500,0,388.1,0,250C0,111.9,111.9,0,250,0c138.1,0,250,111.9,250,250
	C500,388.1,388.1,500,250,500z M249.9,17.9C121.8,17.9,18,121.8,18,249.9C18,378,121.8,481.8,249.9,481.8
	c128.1,0,231.9-103.8,231.9-231.9C481.9,121.8,378,17.9,249.9,17.9z M119.4,216.6l12.6-12.6l113.6,113.6l113.6-113.6l12.6,12.6
	L245.7,342.8L119.4,216.6z"/>
</svg>
