<?xml version="1.0" encoding="utf-8"?>
<!-- Generator: Adobe Illustrator 18.0.0, SVG Export Plug-In . SVG Version: 6.00 Build 0)  -->
<!DOCTYPE svg PUBLIC "-//W3C//DTD SVG 1.1//EN" "http://www.w3.org/Graphics/SVG/1.1/DTD/svg11.dtd">
<svg version="1.1" id="Layer_1" xmlns="http://www.w3.org/2000/svg" xmlns:xlink="http://www.w3.org/1999/xlink" x="0px" y="0px"
	 viewBox="0 0 500 500" enable-background="new 0 0 500 500" xml:space="preserve">
<g id="_x33_5-interface_-_search" enable-background="new    ">
	<g id="_x33_5-interface_-_search_1_">
		<g>
			<path fill="#FFFFFF" d="M496.5,475.5L357.3,336.2c30.7-35.6,50-81.4,50-132.1C407.2,91.9,316.3,1,204.1,1C91.9,1,1,91.9,1,204.1
				c0,112.2,90.9,203.1,203.1,203.1c50.7,0,96.5-19.2,132.1-50l139.3,139.3c5.8,5.8,15.2,5.8,21,0
				C502.3,490.7,502.3,481.3,496.5,475.5z M204.1,376c-94.9,0-171.9-77-171.9-171.9c0-94.9,76.9-171.9,171.9-171.9
				c94.9,0,171.9,77,171.9,171.9C376,299,299,376,204.1,376z"/>
		</g>
	</g>
</g>
<g id="Layer_1_1_">
</g>
</svg>
